<svg width="26" height="24" viewBox="0 0 26 24" fill="none" xmlns="http://www.w3.org/2000/svg">
  <path fill-rule="evenodd" clip-rule="evenodd" d="M13.2218 21.9355C18.5701 21.9355 23.0001 17.6484 23.0001 12.4629C23.0001 7.28711 18.56 3 13.2117 3C7.86336 3 3.43335 7.28711 3.43335 12.4629C3.43335 17.6484 7.87345 21.9355 13.2218 21.9355ZM19.1856 17.707C18.2068 16.6035 16.0372 15.627 13.2218 15.627C10.4063 15.627 8.23673 16.6035 7.25789 17.6973C5.96623 16.3203 5.18921 14.4844 5.18921 12.4629C5.18921 8.14648 8.75138 4.67969 13.2117 4.67969C17.672 4.67969 21.2543 8.14648 21.2644 12.4629C21.2644 14.4844 20.4773 16.3203 19.1856 17.707ZM16.5014 10.5879C16.5014 12.5703 15.0583 14.0938 13.2218 14.0742C11.3751 14.0645 9.95223 12.5703 9.94214 10.5879C9.93205 8.72266 11.3852 7.16992 13.2218 7.16992C15.0483 7.16992 16.5014 8.72266 16.5014 10.5879Z" fill="#4A4A4A"/>
  <mask id="mask0_308_117" style="mask-type:luminance" maskUnits="userSpaceOnUse" x="3" y="3" width="20" height="19">
    <path fill-rule="evenodd" clip-rule="evenodd" d="M13.2218 21.9355C18.5701 21.9355 23.0001 17.6484 23.0001 12.4629C23.0001 7.28711 18.56 3 13.2117 3C7.86336 3 3.43335 7.28711 3.43335 12.4629C3.43335 17.6484 7.87345 21.9355 13.2218 21.9355ZM19.1856 17.707C18.2068 16.6035 16.0372 15.627 13.2218 15.627C10.4063 15.627 8.23673 16.6035 7.25789 17.6973C5.96623 16.3203 5.18921 14.4844 5.18921 12.4629C5.18921 8.14648 8.75138 4.67969 13.2117 4.67969C17.672 4.67969 21.2543 8.14648 21.2644 12.4629C21.2644 14.4844 20.4773 16.3203 19.1856 17.707ZM16.5014 10.5879C16.5014 12.5703 15.0583 14.0938 13.2218 14.0742C11.3751 14.0645 9.95223 12.5703 9.94214 10.5879C9.93205 8.72266 11.3852 7.16992 13.2218 7.16992C15.0483 7.16992 16.5014 8.72266 16.5014 10.5879Z" fill="white"/>
  </mask>
  <g mask="url(#mask0_308_117)">
    <rect x="0.333344" width="24.8" height="24" fill="#4A4A4A"/>
  </g>
</svg>