<svg width="25" height="24" viewBox="0 0 25 24" fill="none" xmlns="http://www.w3.org/2000/svg">
<path fill-rule="evenodd" clip-rule="evenodd" d="M13.3637 20.2746C13.0361 20.4798 12.6602 20.6756 12.4 20.6756C12.1398 20.6756 11.7639 20.4798 11.4459 20.2746C6.37669 17.1036 3.10001 13.3731 3.10001 9.59585C3.10001 6.27565 5.47078 4 8.47762 4C10.2316 4 11.6001 4.77409 12.4 5.92124C13.2095 4.76477 14.5684 4 16.332 4C19.3292 4 21.7 6.27565 21.7 9.59585C21.7 13.3731 18.4233 17.1036 13.3637 20.2746ZM12.2362 18.4839C12.3133 18.5399 12.3615 18.5679 12.4 18.5679C12.4386 18.5679 12.4867 18.5399 12.5638 18.4839C16.4188 16.0031 19.6473 12.6083 19.6473 9.5772C19.6473 7.41347 18.1535 5.9399 16.1586 5.9399C14.5588 5.9399 13.6914 6.87254 13.0843 7.68394C12.8144 8.03834 12.6506 8.16891 12.4 8.16891C12.1494 8.16891 11.9663 8.03834 11.7158 7.68394C11.1375 6.86321 10.2509 5.9399 8.64146 5.9399C6.64653 5.9399 5.15275 7.41347 5.15275 9.5772C5.15275 12.6083 8.38125 16.0031 12.2362 18.4839Z" fill="#4A4A4A"/>
<mask id="mask0_308_127" style="mask-type:luminance" maskUnits="userSpaceOnUse" x="3" y="4" width="19" height="17">
<path fill-rule="evenodd" clip-rule="evenodd" d="M13.3637 20.2746C13.0361 20.4798 12.6602 20.6756 12.4 20.6756C12.1398 20.6756 11.7639 20.4798 11.4459 20.2746C6.37669 17.1036 3.10001 13.3731 3.10001 9.59585C3.10001 6.27565 5.47078 4 8.47762 4C10.2316 4 11.6001 4.77409 12.4 5.92124C13.2095 4.76477 14.5684 4 16.332 4C19.3292 4 21.7 6.27565 21.7 9.59585C21.7 13.3731 18.4233 17.1036 13.3637 20.2746ZM12.2362 18.4839C12.3133 18.5399 12.3615 18.5679 12.4 18.5679C12.4386 18.5679 12.4867 18.5399 12.5638 18.4839C16.4188 16.0031 19.6473 12.6083 19.6473 9.5772C19.6473 7.41347 18.1535 5.9399 16.1586 5.9399C14.5588 5.9399 13.6914 6.87254 13.0843 7.68394C12.8144 8.03834 12.6506 8.16891 12.4 8.16891C12.1494 8.16891 11.9663 8.03834 11.7158 7.68394C11.1375 6.86321 10.2509 5.9399 8.64146 5.9399C6.64653 5.9399 5.15275 7.41347 5.15275 9.5772C5.15275 12.6083 8.38125 16.0031 12.2362 18.4839Z" fill="white"/>
</mask>
<g mask="url(#mask0_308_127)">
<rect width="24.8" height="24" fill="#4A4A4A"/>
</g>
</svg> 