<svg width="23" height="19" viewBox="0 0 23 19" fill="none" xmlns="http://www.w3.org/2000/svg">
  <path fill-rule="evenodd" clip-rule="evenodd" d="M19.6909 12.9688C19.6909 13.3984 19.3377 13.7109 18.934 13.7109H7.80351C6.40084 13.7109 5.66419 12.8809 5.46236 11.543L3.94869 1.51367H0.810344C0.386515 1.51367 0.0333252 1.17188 0.0333252 0.751953C0.0333252 0.341797 0.386515 0 0.810344 0H4.13033C5.13945 0 5.422 0.371094 5.52291 1.12305L5.69446 2.23633H21.1844C21.7596 2.23633 22.1128 2.55859 22.1128 3.03711C22.1128 3.125 22.0926 3.27148 22.0724 3.39844L21.3357 8.19336C21.1238 9.55078 20.3973 10.3906 18.9744 10.3906H6.92558L7.07695 11.3574C7.15767 11.8848 7.4705 12.2266 7.99524 12.2266H18.934C19.3377 12.2266 19.6909 12.5391 19.6909 12.9688ZM5.91646 3.71094L6.70357 8.90625L18.823 8.89648C19.3478 8.89648 19.6404 8.56445 19.7211 8.02734L20.367 3.71094H5.91646ZM8.57043 18.252C9.44836 18.252 10.1547 17.5684 10.1547 16.709C10.1547 15.8594 9.44836 15.1758 8.57043 15.1758C7.68241 15.1758 6.97603 15.8594 6.97603 16.709C6.97603 17.5684 7.68241 18.252 8.57043 18.252ZM19.0551 16.709C19.0551 17.5684 18.3488 18.252 17.4607 18.252C16.5828 18.252 15.8663 17.5684 15.8663 16.709C15.8663 15.8594 16.5828 15.1758 17.4607 15.1758C18.3488 15.1758 19.0551 15.8594 19.0551 16.709Z" fill="black"/>
  <mask id="mask0_308_105" style="mask-type:luminance" maskUnits="userSpaceOnUse" x="0" y="0" width="23" height="19">
    <path fill-rule="evenodd" clip-rule="evenodd" d="M19.6909 12.9688C19.6909 13.3984 19.3377 13.7109 18.934 13.7109H7.80351C6.40084 13.7109 5.66419 12.8809 5.46236 11.543L3.94869 1.51367H0.810344C0.386515 1.51367 0.0333252 1.17188 0.0333252 0.751953C0.0333252 0.341797 0.386515 0 0.810344 0H4.13033C5.13945 0 5.422 0.371094 5.52291 1.12305L5.69446 2.23633H21.1844C21.7596 2.23633 22.1128 2.55859 22.1128 3.03711C22.1128 3.125 22.0926 3.27148 22.0724 3.39844L21.3357 8.19336C21.1238 9.55078 20.3973 10.3906 18.9744 10.3906H6.92558L7.07695 11.3574C7.15767 11.8848 7.4705 12.2266 7.99524 12.2266H18.934C19.3377 12.2266 19.6909 12.5391 19.6909 12.9688ZM5.91646 3.71094L6.70357 8.90625L18.823 8.89648C19.3478 8.89648 19.6404 8.56445 19.7211 8.02734L20.367 3.71094H5.91646ZM8.57043 18.252C9.44836 18.252 10.1547 17.5684 10.1547 16.709C10.1547 15.8594 9.44836 15.1758 8.57043 15.1758C7.68241 15.1758 6.97603 15.8594 6.97603 16.709C6.97603 17.5684 7.68241 18.252 8.57043 18.252ZM19.0551 16.709C19.0551 17.5684 18.3488 18.252 17.4607 18.252C16.5828 18.252 15.8663 17.5684 15.8663 16.709C15.8663 15.8594 16.5828 15.1758 17.4607 15.1758C18.3488 15.1758 19.0551 15.8594 19.0551 16.709Z" fill="white"/>
  </mask>
  <g mask="url(#mask0_308_105)">
    <rect x="-1" y="-3" width="24.8" height="24" fill="#4A4A4A"/>
  </g>
</svg>